<?xml version="1.0" encoding="UTF-8" standalone="no"?>
<!-- Created with Inkscape (http://www.inkscape.org/) -->

<svg
   width="210mm"
   height="297mm"
   viewBox="0 0 210 297"
   version="1.1"
   id="svg5"
   xml:space="preserve"
   inkscape:version="1.2.2 (732a01da63, 2022-12-09)"
   sodipodi:docname="GUI boyz Svg Stroke.svg"
   xmlns:inkscape="http://www.inkscape.org/namespaces/inkscape"
   xmlns:sodipodi="http://sodipodi.sourceforge.net/DTD/sodipodi-0.dtd"
   xmlns:xlink="http://www.w3.org/1999/xlink"
   xmlns="http://www.w3.org/2000/svg"
   xmlns:svg="http://www.w3.org/2000/svg"><sodipodi:namedview
     id="namedview7"
     pagecolor="#505050"
     bordercolor="#eeeeee"
     borderopacity="1"
     inkscape:showpageshadow="0"
     inkscape:pageopacity="0"
     inkscape:pagecheckerboard="0"
     inkscape:deskcolor="#505050"
     inkscape:document-units="mm"
     showgrid="false"
     showguides="false"
     inkscape:zoom="1"
     inkscape:cx="199.5"
     inkscape:cy="297"
     inkscape:window-width="1920"
     inkscape:window-height="1017"
     inkscape:window-x="-8"
     inkscape:window-y="-8"
     inkscape:window-maximized="1"
     inkscape:current-layer="layer1" /><defs
     id="defs2"><radialGradient
       inkscape:collect="always"
       xlink:href="#linearGradient9150"
       id="radialGradient9152"
       cx="84.497833"
       cy="188.69817"
       fx="84.497833"
       fy="188.69817"
       r="84.73008"
       gradientTransform="matrix(1,0,0,0.66847657,0.23225609,-69.500222)"
       gradientUnits="userSpaceOnUse" /><linearGradient
       inkscape:collect="always"
       id="linearGradient9150"><stop
         style="stop-color:#3f48cc;stop-opacity:1;"
         offset="0.6881029"
         id="stop9146" /><stop
         style="stop-color:#212eea;stop-opacity:1;"
         offset="1"
         id="stop9148" /></linearGradient></defs><g
     inkscape:label="Layer 1"
     inkscape:groupmode="layer"
     id="layer1"><path
       style="fill:url(#radialGradient9152);fill-opacity:1;fill-rule:nonzero;stroke:#000000;stroke-width:1;stroke-linecap:round;stroke-linejoin:bevel;stroke-dasharray:none;stroke-dashoffset:0;stroke-opacity:1"
       d="m 84.181615,112.57428 c -1.359776,-0.29167 -2.241484,-0.66245 -3.129082,-1.31587 -1.153019,-0.8488 -1.322175,-1.18616 -1.321456,-2.63548 7.94e-4,-1.64391 0.218755,-3.39231 0.515731,-4.13743 0.13702,-0.34379 0.468665,-1.13108 0.736987,-1.74955 0.650689,-1.49978 1.398698,-4.241197 1.425813,-5.225517 0.01934,-0.7017 -0.04453,-0.92044 -0.550712,-1.8863 -0.314915,-0.6009 -0.746699,-1.23907 -0.959519,-1.41814 -0.669317,-0.5632 -2.927686,-1.11662 -3.850294,-0.94354 -0.669242,0.12555 -1.412933,0.84251 -2.074531,1.99996 -1.22413,2.14159 -1.797416,4.58852 -1.643751,7.015937 0.0695,1.09784 0.04577,1.40244 -0.136726,1.75535 -0.328427,0.63511 -1.934599,2.28712 -2.423088,2.49225 -0.514089,0.21587 -2.142689,0.23331 -3.106592,0.0333 -0.900815,-0.18695 -2.210904,-0.91181 -2.980172,-1.6489 l -0.604184,-0.57891 0.07884,-0.89694 c 0.09631,-1.09563 0.704609,-2.92251 1.394531,-4.188087 0.282491,-0.5182 0.587886,-1.18031 0.678651,-1.47135 0.09077,-0.29104 0.291005,-0.73753 0.444974,-0.99219 0.238403,-0.39431 0.278133,-0.65933 0.267742,-1.78594 -0.0081,-0.87494 -0.08186,-1.48794 -0.21791,-1.81024 -0.407202,-0.96465 -1.855013,-1.55712 -3.814951,-1.56113 -1.445609,-0.003 -1.806784,0.10146 -2.398884,0.69356 -0.71741,0.71741 -1.111017,1.6516 -1.420844,3.37223 -0.348285,1.9342 -1.094772,4.498267 -1.624166,5.578757 -0.505286,1.03127 -0.822172,1.2301 -2.873727,1.80306 -1.340573,0.3744 -1.349018,0.375 -3.086558,0.21708 -2.284534,-0.20763 -2.591377,-0.30453 -3.337298,-1.05393 -0.871622,-0.87569 -1.006046,-1.27338 -1.083164,-3.204487 -0.06154,-1.54092 -0.04173,-1.7258 0.290531,-2.71198 0.372999,-1.10709 0.839874,-2.00953 1.684591,-3.25617 0.698648,-1.03108 1.430639,-2.68742 1.430639,-3.23723 0,-0.64585 -0.683635,-1.94677 -1.129879,-2.1501 -0.689166,-0.314 -1.421434,-0.33613 -1.7463,-0.0528 -0.170384,0.14862 -0.590103,0.29339 -0.986793,0.34037 -0.883531,0.10464 -2.622603,0.66125 -3.499464,1.12005 -1.597874,0.83604 -3.024862,1.90549 -5.371938,4.02597 -0.784122,0.70841 -1.885956,1.66893 -2.448515,2.13447 -0.562563,0.46554 -1.667301,1.54307 -2.454976,2.39451 -2.972009,3.212607 -4.498203,4.309527 -6.836093,4.913317 -1.13629,0.29347 -3.232842,0.29292 -4.365625,-10e-4 -2.629773,-0.68264 -4.835104,-2.54376 -5.298063,-4.471107 -0.09272,-0.38601 -0.172089,-1.23762 -0.176371,-1.89247 -0.0067,-1.02373 0.04768,-1.3297 0.387878,-2.18281 0.608834,-1.52674 0.797588,-1.81039 2.025479,-3.04377 1.683503,-1.69103 2.045428,-1.91019 9.87685,-5.98085 5.113377,-2.65786 6.52382,-3.62432 8.503893,-5.82702 1.536745,-1.70952 2.289003,-2.84252 2.37114,-3.57123 0.09014,-0.79972 -0.117186,-1.12006 -0.980768,-1.51542 -0.639402,-0.29273 -0.863216,-0.32698 -1.80766,-0.27658 -0.968949,0.0517 -1.198245,0.12 -2.268524,0.67558 -1.476547,0.76647 -2.87528,1.80878 -4.454744,3.31959 -2.521509,2.41189 -5.552545,3.97014 -7.232513,3.71821 -0.884989,-0.13271 -1.683336,-0.55421 -2.223423,-1.17389 -0.551167,-0.6324 -1.214133,-1.95795 -1.326945,-2.65314 -0.08747,-0.53902 -0.0709,-0.55763 3.122467,-3.50581 1.603565,-1.48044 2.354938,-2.45837 2.479745,-3.22747 0.114271,-0.70417 -0.173915,-0.74033 -1.243419,-0.15603 -0.884619,0.4833 -3.760645,2.38618 -6.309774,4.17478 -0.722483,0.50693 -1.55592,0.98512 -1.852083,1.06264 -0.296163,0.0775 -0.929009,0.37459 -1.406325,0.66016 -0.477317,0.28562 -0.946497,0.51926 -1.042627,0.51926 -0.0961,0 -0.68852,0.1764 -1.31642,0.39198 -1.9517899,0.67016 -4.7665099,0.67264 -6.9244699,0.006 -0.95136,-0.29384 -2.26788,-1.32651 -2.89092,-2.26763 -0.50961,-0.76977 -1.05893001,-2.52262 -1.14448001,-3.65199 -0.0675,-0.89065 -0.0419,-1.01962 0.36585,-1.84795 0.29464001,-0.59849 0.74548001,-1.19547 1.37496001,-1.82065 1.01785,-1.0109 1.8181,-1.50092 3.24204,-1.98524 1.59001,-0.54079 8.6887039,-2.18994 9.9126979,-2.30288 0.643672,-0.0594 1.246609,-0.15514 1.339859,-0.21278 0.09325,-0.0576 0.593188,-0.18518 1.110974,-0.28345 1.795344,-0.34074 3.481863,-1.45103 3.764483,-2.4783 0.218856,-0.7955 -0.181608,-2.61635 -0.627957,-2.85523 -0.44347,-0.23734 -1.551736,-0.29657 -2.794878,-0.14937 -1.705615,0.20195 -4.632529,0.78909 -4.956469,0.99428 -0.14552,0.0922 -0.71107,0.20983 -1.25677,0.26147 -0.54571,0.0516 -1.28069,0.17802 -1.6333,0.28086 -0.35261,0.10284 -1.2541599,0.22662 -2.0034499,0.27506 -1.23245,0.0797 -1.41885,0.0607 -1.95515,-0.1989 -0.32605,-0.15784 -0.92007,-0.63008 -1.32006,-1.04942 -0.64526,-0.67648 -0.75152,-0.86916 -0.94254,-1.70902 -0.56847,-2.49936 0.0265,-4.05937 2.0756,-5.44207 1.25286,-0.84542 1.85187,-1.00667 4.9851499,-1.34196 1.41882,-0.15182 2.966636,-0.36606 3.439579,-0.47608 0.472943,-0.11001 1.276615,-0.2484 1.785937,-0.30752 1.926015,-0.22356 4.789796,-0.68498 5.488358,-0.88429 1.534531,-0.43782 2.118413,-0.9552 2.118413,-1.87713 0,-0.53275 -0.06266,-0.65871 -0.569078,-1.14394 -0.652518,-0.62522 -3.509642,-2.12877 -4.280534,-2.25261 -0.27951,-0.045 -0.627263,-0.14868 -0.772784,-0.23046 -0.14552,-0.0818 -0.562239,-0.19537 -0.926041,-0.25244 -0.363802,-0.0571 -1.137709,-0.34429 -1.719792,-0.63826 -2.157345,-1.08953 -5.621858,-4.05067 -5.8218279,-4.97597 -0.0459,-0.21248 -0.16867,-0.62644 -0.27276,-0.91992 -0.42299,-1.19254 -0.16757,-2.81213 0.6799599,-4.31157 1.03326,-1.82802 2.02237,-2.864 3.384095,-3.54446 1.122809,-0.56108 2.053873,-0.72014 3.684179,-0.62941 2.643128,0.14711 5.768062,1.10953 9.128125,2.81129 2.326971,1.17853 3.957997,2.38563 6.680729,4.94431 1.162418,1.09238 2.255419,2.00054 2.638734,2.1925 1.478603,0.74047 3.51172,0.17666 4.240086,-1.17583 0.239617,-0.44494 0.239284,-0.44759 -0.163878,-1.30913 -0.947184,-2.02408 -2.082779,-3.34547 -5.995918,-6.97692 -1.510234,-1.40152 -3.738603,-3.97167 -4.129178,-4.7625 -0.230224,-0.46615 -0.294013,-0.82653 -0.294013,-1.66099 0,-0.96946 0.03285,-1.10476 0.363802,-1.49844 0.200092,-0.23801 0.363802,-0.5154 0.363802,-0.61643 0,-0.57506 1.947053,-2.13982 3.551288,-2.85402 1.299192,-0.57839 1.450187,-0.59421 2.883781,-0.30204 1.786721,0.36414 2.956785,1.10635 3.96358,2.51424 1.24587,1.74221 1.52427,2.68651 2.098008,7.11618 0.383652,2.96205 0.56315,3.53219 1.676792,5.32595 0.931148,1.49981 1.551615,2.16201 2.025774,2.16201 1.478952,0 5.232027,-1.80463 5.232027,-2.51578 0,-0.98452 -0.309763,-4.47899 -0.47154,-5.31952 -0.256686,-1.3336 -0.490622,-1.85579 -1.690066,-3.77248 -2.282751,-3.64781 -4.076792,-7.89151 -4.387509,-10.37838 -0.08025,-0.64233 -0.04166,-0.84406 0.318482,-1.6646 0.225388,-0.51353 0.4098,-1.01624 0.4098,-1.11713 0,-0.10089 0.177575,-0.46344 0.39461,-0.80568 0.217038,-0.34223 0.430691,-0.76598 0.474784,-0.94166 0.171591,-0.68367 2.508891,-2.22532 3.735782,-2.46407 1.009401,-0.19642 3.057268,-0.0946 4.19222,0.20838 3.666868,0.97899 6.28701,4.06523 6.282859,7.40053 -0.0013,0.91322 -0.757576,4.96909 -1.195901,6.41219 -0.255172,0.84009 -0.284025,1.16089 -0.219429,2.43956 0.08608,1.70405 0.340185,2.79352 0.975793,4.18373 0.7439,1.62708 1.367828,2.1172 2.695213,2.1172 1.036344,0 3.284918,-0.45467 4.227611,-0.85483 0.400182,-0.16987 0.916927,-0.37995 1.148323,-0.46685 0.487109,-0.18292 1.881211,-1.58516 2.212091,-2.22501 0.299924,-0.57999 0.465228,-3.04482 0.471914,-7.03664 0.0083,-4.93801 0.398486,-8.84448 1.060111,-10.61283 0.598303,-1.59911 1.929567,-3.17491 3.470876,-4.10843 1.237885,-0.74975 2.663319,-1.15231995 4.396478,-1.24162995 1.73233,-0.0893 2.16998,0.0388 3.878241,1.13455995 1.3058,0.83763 1.99822,1.59117 2.62214,2.8536 0.59886,1.2117 0.77168,2.40481 0.66145,4.56639 -0.0829,1.62605 -0.0951,1.67683 -0.73003,3.04271 -0.35513,0.76398 -0.87046,1.92484 -1.14517,2.57969 -0.27472,0.65484 -0.86943,1.87523 -1.321593,2.71198 -1.0165,1.88108 -1.243039,2.54364 -1.340136,3.91952 -0.06711,0.95096 -0.04247,1.13663 0.203658,1.53488 0.159451,0.258 0.577805,0.61514 0.971698,0.82952 0.596253,0.32453 0.875073,0.3846 2.020773,0.43538 2.03616,0.0902 4.13442,-0.41429 6.35615,-1.52836 3.1752,-1.59217 4.66553,-3.42311 6.70197,-8.23365 0.35421,-0.83675 0.85016,-1.85554 1.102106,-2.26398 0.25195,-0.40844 0.57452,-1.01425 0.71683,-1.34624 0.31426,-0.73314 1.95147,-2.49053 2.62923,-2.82222 0.77818,-0.38085 3.27441,-0.34106 4.30732,0.0687 1.53508,0.6089 2.72293,1.92792 3.22909,3.58565 0.29705,0.97287 0.29668,2.99581 -5.3e-4,3.97494 -0.63413,2.08771 -3.40713,4.94209 -7.89799,8.12975 -0.82005,0.58208 -1.80099,1.27952 -2.17987,1.54985 -0.82201,0.58651 -2.847716,2.65655 -3.596966,3.67567 -0.29421,0.40018 -0.73039,1.24432 -0.96929,1.87587 -0.36334,0.96053 -0.41531,1.22879 -0.31787,1.64081 0.1831,0.77421 0.57796,0.98004 1.90667,0.99387 2.031116,0.0211 2.508446,-0.35033 4.691106,-3.65065 0.81804,-1.23693 1.69553,-2.44715 1.94997,-2.68939 0.57418,-0.5466 1.32406,-0.73646 2.16475,-0.54806 0.7676,0.17203 1.00142,0.29762 1.65738,0.89024 0.96489,0.87172 1.11858,1.57006 0.63185,2.87097 -0.43766,1.16975 -1.30748,2.0046 -3.04569,2.92323 -0.81833,0.43249 -1.75381,1.03696 -2.07883,1.34327 -0.55649,0.52447 -0.58664,0.58896 -0.51727,1.10617 0.16739,1.24797 1.29909,1.76547 3.8652,1.76745 1.32269,10e-4 1.73093,-0.0496 2.44739,-0.3037 1.14228,-0.40506 4.85712,-2.2096 6.01927,-2.92394 1.77125,-1.08874 5.72381,-4.45528 8.46096,-7.2065 1.45206,-1.45954 2.88081,-2.81489 3.175,-3.01191 0.29418,-0.19701 1.01113,-0.75049 1.59321,-1.22995 1.26613,-1.0429 2.45428,-1.74352 4.77303,-2.81451 2.66941,-1.23296 2.75461,-1.25182 5.95824,-1.31912 5.13998,-0.10797 6.19438,0.32413 7.61353,3.12008 0.38815,0.76472 0.42836,0.95171 0.40818,1.89812 -0.0471,2.20963 -0.5765,3.37655 -2.40353,5.29806 -1.54405,1.62388 -2.3478,2.19941 -4.74257,3.39594 -2.66049,1.32929 -4.99526,2.23437 -11.78878,4.56995 -3.08723,1.06137 -4.39358,1.69679 -6.82956,3.32193 -3.38196,2.25627 -4.2518,3.13169 -5.3951,5.42983 l -0.66468,1.33608 0.55869,1.01209 0.55869,1.0121 2.07433,0.0313 c 3.27554,0.0495 4.25385,-0.0122 4.82345,-0.30414 0.27509,-0.14101 0.5879,-0.25637 0.69514,-0.25637 0.19544,0 2.7515,-1.33726 5.35313,-2.8006 0.76398,-0.42972 1.8934,-1.20189 2.50982,-1.71592 1.77914,-1.48364 5.64326,-3.61535 8.57715,-4.73172 2.78999,-1.06163 8.435,-1.95142 10.63571,-1.67646 0.92579,0.11567 2.04351,0.76403 2.41288,1.39966 0.22226,0.38246 0.26442,0.66452 0.2424,1.62163 -0.0382,1.66117 -0.19962,2.12835 -1.03945,3.00881 -1.37493,1.44149 -2.37151,1.76624 -7.28863,2.37509 -5.84114,0.72327 -7.77286,1.13884 -8.8889,1.91225 -0.54039,0.37449 -1.68655,1.50312 -1.59647,1.57206 0.0318,0.0244 0.32578,0.25657 0.6532,0.51599 1.51663,1.20165 2.62809,1.37798 7.34219,1.16478 2.99482,-0.13544 4.15593,-0.23193 6.35,-0.52771 1.25404,-0.16905 4.75473,-0.165 6.7241,0.008 3.0615,0.2686 6.37846,1.07666 8.40811,2.04834 0.99546,0.47658 1.43029,0.78393 2.19366,1.55057 0.52365,0.52589 1.1258,1.25383 1.33811,1.61763 0.36836,0.6312 0.386,0.73408 0.38575,2.24896 0,1.88791 -0.1119,2.16815 -1.205,3.02609 -0.99511,0.78103 -2.85488,1.74197 -3.82182,1.97473 -0.43656,0.10509 -1.38906,0.35878 -2.11666,0.56375 l -1.32292,0.37268 -5.09323,0.008 c -6.40298,0.01 -6.04732,0.0658 -15.54427,-2.44027 -1.82266,-0.48096 -2.31879,-0.56105 -3.57187,-0.57652 -1.65563,-0.0204 -2.47017,0.19295 -3.23694,0.8481 l -0.45882,0.39201 0.89325,0.90015 c 1.36067,1.37118 1.89647,1.63237 4.65459,2.26907 4.13485,0.9545 6.30505,1.65506 7.9375,2.56233 0.92312,0.51305 2.11981,1.84677 2.67939,2.98619 0.32938,0.6707 0.36332,0.8757 0.36326,2.195 -4e-5,1.32901 -0.0325,1.52123 -0.37377,2.2164 -0.4109,0.83688 -1.00806,1.33128 -2.29592,1.90083 -1.14352,0.50572 -1.84748,0.59116 -3.65502,0.44361 -1.89133,-0.1544 -3.17371,-0.3859 -4.71182,-0.85061 -0.6131,-0.18524 -1.2226,-0.33679 -1.35445,-0.33679 -0.13185,0 -0.76132,-0.21607 -1.39882,-0.48015 -2.31491,-0.95894 -6.4754,-1.75699 -8.16298,-1.56579 -1.13111,0.12815 -1.47191,0.30357 -2.52113,1.29771 -0.90034,0.85308 -0.9187,0.88328 -0.66145,1.08823 0.43862,0.34945 1.88482,1.0435 3.70416,1.77767 4.15422,1.67638 5.82158,2.82818 6.40888,4.42721 0.41981,1.14299 0.16672,2.05772 -0.98782,3.57026 -1.02284,1.33997 -1.71096,1.62243 -3.58266,1.47056 -1.60614,-0.13032 -2.4153,-0.37563 -4.42981,-1.34297 -2.21221,-1.06228 -3.47929,-1.36483 -4.67566,-1.11647 -0.82851,0.17199 -1.39809,0.5959 -1.39809,1.04048 0,0.34005 0.81447,1.04162 1.65713,1.42739 0.37235,0.17048 1.20851,0.4023 1.85811,0.51516 3.18624,0.55358 8.18745,1.92737 9.46741,2.60062 1.10727,0.58241 2.84958,2.0323 3.49382,2.90743 0.81829,1.11158 1.05217,1.8123 1.05217,3.15246 0,0.98706 -0.0504,1.22955 -0.41272,1.98437 -0.74053,1.542907 -1.97038,2.469797 -4.63246,3.491327 -2.68339,1.02971 -4.78475,1.14281 -6.71083,0.36118 -0.57221,-0.23222 -1.34612,-0.48699 -1.71979,-0.56616 -0.37367,-0.0792 -0.91753,-0.26355 -1.20857,-0.40972 -1.02838,-0.51651 -2.80276,-2.01851 -4.86918,-4.121757 -1.59716,-1.62562 -2.24869,-2.3939 -2.75846,-3.25279 -1.39606,-2.35212 -2.19021,-3.09404 -3.74548,-3.49914 -1.57416,-0.41001 -3.08432,-0.13774 -4.74827,0.85609 -1.01527,0.60639 -1.30804,1.12611 -1.30804,2.32206 0,2.01433 1.70774,3.85957 7.06452,7.633317 0.63993,0.45082 0.95907,0.78345 1.17027,1.21972 0.37118,0.76677 0.4777,1.9496 0.27043,3.00311 -0.3099,1.5752 -0.82171,2.19397 -2.46006,2.97417 -3.04868,1.45183 -7.743,0.89061 -9.94479,-1.18893 -1.167776,-1.10292 -1.666026,-2.1826 -2.565816,-5.55996 -0.28792,-1.08071 -0.65365,-2.24201 -0.81272,-2.580657 -0.55746,-1.18675 -1.78533,-2.11102 -4.53455,-3.41334 -2.54628,-1.20618 -3.49705,-0.8691 -3.97187,1.40818 -0.22051,1.05755 -0.4473,4.636047 -0.45278,7.144127 -0.006,2.68069 -0.18733,3.85914 -0.78834,5.1194 -0.52881,1.10885 -1.74862,2.56433 -2.131,2.54273 -0.10503,-0.006 -0.59852,-0.0982 -1.09665,-0.20505 z"
       id="path8665-1" /></g></svg>
